PathFileType	4	(X/Y/Z)	C:/Users/opensim2020/Desktop/walking_exp_matlab/subject06_walking12_straigt_04.trc	
DataRate	CameraRate	NumFrames	NumMarkers	Units	OrigDataRate	OrigDataStartFrame	OrigNumFrames	
100.00	100.00	4	48	mm	100.00	2811	181	
Frame#	Time	LFHD			RFHD			LBHD			RBHD			C7			T10			CLAV			STRN			RBAK			LSHO			LUPA			LELB			LFRM			LWRA			LWRB			LFIN			RSHO			RUPA			RELB			RFRM			RWRA			RWRB			RFIN			LASI			RASI			LPSI			RPSI			LTHI			LKNE			LTIB			LANK			LHEE			LTOE			RTHI			RKNE			RTIB			RANK			RHEE			RTOE			*39			*40			*41			*42			*43			*44			*45			*46			*47			
		X1	Y1	Z1	X2	Y2	Z2	X3	Y3	Z3	X4	Y4	Z4	X5	Y5	Z5	X6	Y6	Z6	X7	Y7	Z7	X8	Y8	Z8	X9	Y9	Z9	X10	Y10	Z10	X11	Y11	Z11	X12	Y12	Z12	X13	Y13	Z13	X14	Y14	Z14	X15	Y15	Z15	X16	Y16	Z16	X17	Y17	Z17	X18	Y18	Z18	X19	Y19	Z19	X20	Y20	Z20	X21	Y21	Z21	X22	Y22	Z22	X23	Y23	Z23	X24	Y24	Z24	X25	Y25	Z25	X26	Y26	Z26	X27	Y27	Z27	X28	Y28	Z28	X29	Y29	Z29	X30	Y30	Z30	X31	Y31	Z31	X32	Y32	Z32	X33	Y33	Z33	X34	Y34	Z34	X35	Y35	Z35	X36	Y36	Z36	X37	Y37	Z37	X38	Y38	Z38	X39	Y39	Z39	X40	Y40	Z40	X41	Y41	Z41	X42	Y42	Z42	X43	Y43	Z43	X44	Y44	Z44	X45	Y45	Z45	X46	Y46	Z46	X47	Y47	Z47	X48	Y48	Z48	

46	0.450	1491.50415	645.90839	1675.04468	1360.55029	648.51465	1659.45313	1497.03809	777.09088	1615.07507	1369.04504	778.80621	1605.74805	1440.14526	775.21814	1457.95325	1432.93591	806.41089	1129.14465	1443.58496	663.28119	1382.09424	1454.26868	624.93042	1206.30042	1360.52600	842.39362	1286.13879	1602.41931	727.84229	1413.40918	1673.07104	719.01422	1211.62927	1685.17249	707.09521	1099.67737	1706.66345	629.95746	971.47961	1665.55530	522.85895	899.74109	1698.12268	575.64990	864.98480	1700.53210	500.85040	814.58984	1280.49365	703.36957	1412.04224	1193.80957	750.97266	1214.70740	1183.89941	751.34741	1092.31909	1168.01929	747.25629	971.65021	1199.65039	702.70654	826.99396	1159.69873	756.52625	833.44824	1158.35498	727.51617	754.02637	1551.31799	638.37323	965.42365	1332.40466	620.57043	979.11053	1511.74585	792.42566	992.41730	1345.22473	773.47400	1003.60297	1603.34619	691.83289	645.69281	1588.18616	674.72040	483.55154	1580.23926	868.16125	333.14725	1544.63953	1000.06189	224.67972	1494.62463	1030.61511	244.55644	1551.69141	952.06531	86.00993	1271.57751	646.18475	646.29138	1300.11768	628.84271	523.15747	1302.91382	662.65863	256.39410	1354.36816	670.66766	72.07597	1400.87122	708.30981	47.99226	1356.15295	515.50488	36.71986	1433.90369	749.48358	1707.60132																								 
47	0.460	1491.09070	635.80920	1675.73206	1360.14417	638.14392	1660.25500	1496.29712	767.08173	1615.78040	1368.26489	768.48456	1606.57629	1439.09998	765.13416	1458.77942	1431.39758	796.50256	1130.08484	1442.95630	653.39722	1382.78406	1453.44812	615.03107	1207.03894	1358.54529	832.19006	1287.26038	1601.67993	718.43738	1413.70715	1671.48816	711.39764	1211.31055	1683.21167	701.18457	1099.13220	1704.97241	627.85474	968.53369	1665.40344	522.61395	893.23682	1697.01062	577.31219	860.17560	1700.73560	504.28812	807.47888	1279.66797	692.45123	1412.77344	1192.63635	737.16364	1214.78357	1182.78479	736.13110	1092.43518	1167.04797	729.80157	971.86963	1199.39954	682.70728	828.41388	1159.02954	736.27899	833.52002	1157.99695	705.49811	754.87695	1550.08167	628.09473	966.40649	1331.26709	611.42279	979.70850	1510.98828	782.52899	993.16791	1344.34314	763.97089	1004.31232	1602.57861	676.72504	647.16266	1587.27356	656.12317	485.53564	1578.93091	847.98621	334.45950	1543.00745	979.07507	224.64061	1492.68311	1009.97882	243.80371	1550.61145	928.18591	87.42628	1270.58655	639.52588	646.12573	1299.43530	624.52789	522.64319	1302.72913	661.40076	256.32254	1354.55811	670.50500	72.13984	1401.02490	708.27448	48.05135	1356.19214	515.42407	36.57974	1433.30811	739.29468	1708.38257																								 
48	0.470	1490.82092	625.75415	1676.24365	1359.76062	627.87354	1660.93213	1495.88562	757.38007	1616.53943	1367.57581	758.21332	1607.37805	1438.06567	755.10712	1459.48975	1430.03479	786.71130	1130.91760	1442.31311	643.48590	1383.43384	1452.59778	605.17175	1207.72095	1356.69043	822.09338	1288.29236	1600.93396	709.02502	1414.04724	1670.11975	703.56885	1211.24609	1681.28967	695.37030	1098.73010	1703.42578	626.09491	965.68799	1665.19019	523.05292	886.89807	1695.41492	579.11847	855.39777	1700.96179	508.33658	800.66119	1278.87939	681.73712	1413.52197	1191.57947	723.38507	1214.90564	1181.74097	720.92468	1092.63489	1166.17432	712.24152	972.23682	1199.19226	662.45715	829.95416	1158.43774	715.79169	833.90283	1157.66101	683.27521	756.01648	1548.74719	617.78656	967.34332	1329.61292	601.24011	980.34625	1510.11365	772.61841	993.95453	1343.44836	754.45850	1004.88049	1601.86060	661.71008	648.60504	1586.43860	637.66949	487.56244	1577.78479	827.56470	334.67892	1541.68396	957.55853	223.66502	1491.21558	989.24176	241.76443	1549.51685	902.96606	87.90726	1270.03662	633.79553	645.97241	1298.73083	620.45459	522.09198	1302.75061	660.50775	256.30344	1354.88477	670.34119	72.27867	1401.28650	708.23541	48.19606	1356.25720	515.31226	36.44943	1432.77698	729.06012	1709.07715																								 
49	0.480	1490.47009	615.70862	1676.68970	1359.47986	617.43835	1661.54297	1494.88794	747.11969	1616.99146	1366.84473	747.94391	1608.11194	1437.15857	745.18323	1460.06396	1428.63586	776.97778	1131.66064	1441.69739	633.54688	1384.01965	1451.73779	595.36676	1208.26587	1354.94861	812.03375	1289.21777	1600.11780	699.51489	1414.35925	1668.76868	695.63544	1211.32056	1679.62024	689.61865	1098.65808	1702.20959	624.89716	963.11853	1664.85718	524.07703	880.70929	1693.83093	581.45209	851.00195	1701.14099	512.95892	794.22125	1278.15393	671.12732	1414.24048	1190.59595	709.77692	1215.12146	1180.82056	705.72791	1092.90417	1165.39465	694.60303	972.77911	1199.07422	642.10602	831.68622	1157.83643	695.02551	834.50946	1157.35828	660.94531	757.46179	1547.43445	607.44165	968.44312	1328.17810	591.88403	980.62311	1509.25830	762.67834	994.74054	1342.47168	745.00751	1005.34198	1601.18054	646.83905	650.01959	1585.77393	619.50781	489.70633	1576.70337	806.84723	334.06058	1540.29553	935.27112	221.05984	1489.74829	967.54272	238.21820	1548.06506	876.28009	87.13026	1269.51697	628.62939	645.31543	1297.97559	616.56226	521.48895	1302.69995	659.82813	256.24918	1355.26929	670.25702	72.40416	1401.59180	708.18256	48.33334	1356.25903	515.22845	36.34568	1432.29517	718.80017	1709.66736																								 
